HIERARCHY
ROOT Hips
{
	OFFSET 0.000000 0.000000 0.000000
	CHANNELS 6 Xposition Yposition Zposition Zrotation Yrotation Xrotation 
	JOINT LeftUpLeg_virtual
	{
		OFFSET 0.000000 0.000000 0.000000
		CHANNELS 3 Zrotation Yrotation Xrotation
		JOINT LeftUpLeg
		{
			OFFSET 10.205400 -3.823500 0.155100
			CHANNELS 3 Zrotation Yrotation Xrotation
			JOINT LeftLeg
			{
				OFFSET 0.708757 -12.982077 0.567790
				CHANNELS 3 Zrotation Yrotation Xrotation
				JOINT LeftFoot
				{
					OFFSET -0.708756 -10.717838 -2.184338
					CHANNELS 3 Zrotation Yrotation Xrotation
					JOINT LeftToeBase
					{
						OFFSET 0.108149 -7.191104 7.560241
						CHANNELS 3 Zrotation Yrotation Xrotation
						End Site
						{
							OFFSET 0.000000 0.000000 0.000000
						}
					}
				}
			}
		}
	}
	JOINT RightUpLeg_virtual
	{
		OFFSET 0.000000 0.000000 0.000000
		CHANNELS 3 Zrotation Yrotation Xrotation
		JOINT RightUpLeg
		{
			OFFSET -10.205400 -3.823500 0.005500
			CHANNELS 3 Zrotation Yrotation Xrotation
			JOINT RightLeg
			{
				OFFSET -0.708756 -12.982134 0.610632
				CHANNELS 3 Zrotation Yrotation Xrotation
				JOINT RightFoot
				{
					OFFSET 0.708754 -10.717769 -1.945823
					CHANNELS 3 Zrotation Yrotation Xrotation
					JOINT RightToeBase
					{
						OFFSET -0.108140 -7.191069 7.372968
						CHANNELS 3 Zrotation Yrotation Xrotation
						End Site
						{
							OFFSET 0.000000 0.000000 0.000000
						}
					}
				}
			}
		}
	}
	JOINT Spine_virtual
	{
		OFFSET 0.000000 0.000000 0.000000
		CHANNELS 3 Zrotation Yrotation Xrotation
		JOINT Spine
		{
			OFFSET 0.000000 6.876099 0.125700
			CHANNELS 3 Zrotation Yrotation Xrotation
			JOINT Spine1
			{
				OFFSET 0.000000 8.022060 0.146608
				CHANNELS 3 Zrotation Yrotation Xrotation
				JOINT Spine2
				{
					OFFSET 0.000000 9.168068 0.167552
					CHANNELS 3 Zrotation Yrotation Xrotation
					JOINT Neck_virtual
					{
						OFFSET 0.000000 0.000000 0.000000
						CHANNELS 3 Zrotation Yrotation Xrotation
						JOINT Neck
						{
							OFFSET 0.000000 10.314075 0.188496
							CHANNELS 3 Zrotation Yrotation Xrotation
							JOINT Head
							{
								OFFSET 0.000000 7.643700 -2.377400
								CHANNELS 3 Zrotation Yrotation Xrotation
								End Site
								{
									OFFSET 0.000000 0.000000 0.000000
								}
							}
						}
					}
					JOINT LeftShoulder_virtual
					{
						OFFSET 0.000000 0.000000 0.000000
						CHANNELS 3 Zrotation Yrotation Xrotation
						JOINT LeftShoulder
						{
							OFFSET 4.392200 8.824978 0.174984
							CHANNELS 3 Zrotation Yrotation Xrotation
							JOINT LeftArm
							{
								OFFSET 8.771219 -2.981674 -0.026999
								CHANNELS 3 Zrotation Yrotation Xrotation
								JOINT LeftForeArm
								{
									OFFSET 8.512804 0.000000 -0.000000
									CHANNELS 3 Zrotation Yrotation Xrotation
									JOINT LeftHand
									{
										OFFSET 18.484802 0.000000 -0.000000
										CHANNELS 3 Zrotation Yrotation Xrotation
										End Site
										{
											OFFSET 0.000000 0.000000 0.000000
										}
									}
								}
							}
						}
					}
					JOINT RightShoulder_virtual
					{
						OFFSET 0.000000 0.000000 0.000000
						CHANNELS 3 Zrotation Yrotation Xrotation
						JOINT RightShoulder
						{
							OFFSET -4.392200 8.824993 0.141379
							CHANNELS 3 Zrotation Yrotation Xrotation
							JOINT RightArm
							{
								OFFSET -8.771282 -2.981682 -0.094208
								CHANNELS 3 Zrotation Yrotation Xrotation
								JOINT RightForeArm
								{
									OFFSET -8.494598 0.000000 0.000000
									CHANNELS 3 Zrotation Yrotation Xrotation
									JOINT RightHand
									{
										OFFSET -18.483803 0.000000 0.000001
										CHANNELS 3 Zrotation Yrotation Xrotation
										End Site
										{
											OFFSET 0.000000 0.000000 0.000000
										}
									}
								}
							}
						}
					}
				}
			}
		}
	}
}
MOTION
Frames: 14
Frame Time: 0.033333
17.714090 33.991413 -14.285699 -178.977143 -3.409495 178.949577 -3.615257 -2.558724 6.282317 7.609031 5.259848 -39.711905 10.161466 4.123491 15.747264 -8.276226 4.271414 14.967552 0.000000 0.000000 0.000000 5.647242 -0.200483 6.956445 11.164381 3.028047 -23.812058 -5.004486 0.324638 16.864118 -0.127175 2.392196 4.935627 0.000000 0.000000 0.000000 1.842420 1.053644 -2.868790 2.677511 1.270675 -9.151154 0.783178 -3.953816 11.033253 -0.122502 0.211402 -0.149433 0.452324 -2.296485 12.462122 -7.633085 3.373956 14.678389 0.000000 0.000000 0.000000 2.198655 -1.717608 9.277449 -0.127908 -6.825649 0.644651 16.916393 -18.335124 -7.739921 -43.177553 -82.044704 45.107297 0.000000 0.000000 0.000000 -2.284132 -0.384067 8.414966 19.776408 7.581276 -0.962340 37.787434 -22.198560 8.982992 -173.890947 73.790201 -176.022690 0.000000 0.000000 0.000000 
17.578651 34.052067 -14.393441 -179.325333 -4.443047 178.932501 -4.213436 -2.784406 6.397841 7.061430 5.222789 -39.920714 10.066517 4.339850 15.327073 -8.050911 4.886313 15.407192 0.000000 0.000000 0.000000 5.235579 -0.570518 7.098378 10.842105 2.644217 -23.906880 -4.818673 0.272874 16.876363 -0.161016 2.508833 5.013111 0.000000 0.000000 0.000000 1.504270 0.579199 -2.516817 2.181358 1.237680 -8.758621 0.754904 -3.869319 11.054321 -0.142073 0.211464 -0.184872 0.510580 -2.272101 12.593327 -7.776408 3.583934 14.711932 0.000000 0.000000 0.000000 2.236662 -1.594884 9.222561 0.920742 -6.430990 0.423838 21.152715 -22.299989 -14.092314 -110.916227 -84.282895 113.959131 0.000000 0.000000 0.000000 -2.091471 -0.230914 8.506492 20.087812 8.071395 -0.717834 37.216953 -22.072837 8.969389 -174.871831 72.716141 -176.991348 0.000000 0.000000 0.000000 
17.448927 34.104565 -14.564945 -179.387146 -5.277040 178.912735 -4.290493 -2.954843 6.725237 6.510382 5.128326 -40.024191 10.080552 4.631591 14.942931 -8.198762 4.978385 15.562316 0.000000 0.000000 0.000000 5.087323 -0.696166 7.550008 10.650392 2.448424 -24.000762 -4.878669 0.275005 16.935531 -0.244639 2.569551 4.890211 0.000000 0.000000 0.000000 1.436453 0.502599 -2.071956 1.795460 1.202525 -8.328598 0.605909 -3.891248 11.095551 -0.134932 0.137096 -0.185711 0.493687 -2.330108 12.635625 -7.836491 3.628408 14.685778 0.000000 0.000000 0.000000 2.281931 -1.587390 9.089191 1.615314 -5.366778 0.125479 25.297904 -24.234233 -23.972753 -148.005623 -80.601833 151.529864 0.000000 0.000000 0.000000 -2.110759 -0.210166 8.578672 20.532915 8.775462 -0.819412 36.881942 -21.448151 9.359807 -176.082154 71.498557 -178.103302 0.000000 0.000000 0.000000 
17.289930 34.136044 -14.793077 -179.316358 -5.747220 178.886220 -3.918401 -3.174637 7.207035 5.886913 4.955866 -39.975130 10.057850 5.091155 14.689452 -8.412243 4.876036 15.405345 0.000000 0.000000 0.000000 5.044151 -0.537762 8.141439 10.459400 2.408403 -24.038390 -5.039496 0.395033 16.985731 -0.352743 2.556572 4.096292 0.000000 0.000000 0.000000 1.492466 0.321138 -1.631097 1.436817 1.294140 -7.866141 0.621426 -3.898072 11.091673 -0.138147 0.144776 -0.179619 0.343728 -2.208028 12.668648 -7.670950 3.646262 14.783641 0.000000 0.000000 0.000000 2.125374 -1.503273 8.978839 1.760944 -3.819216 -0.308213 27.849726 -24.585671 -34.553264 -159.489425 -77.184771 163.099371 0.000000 0.000000 0.000000 -2.321381 -0.146695 8.677253 21.144404 9.375921 -0.855388 36.753026 -20.479848 9.970915 -176.669045 70.405522 -178.504030 0.000000 0.000000 0.000000 
17.032780 34.143227 -15.043117 -179.271702 -6.017631 178.890878 -3.573918 -3.275546 7.512286 5.001462 4.703970 -39.820822 10.022934 5.316182 14.581979 -8.169494 5.150649 15.068642 0.000000 0.000000 0.000000 5.057937 -0.559141 8.496486 9.965152 2.796920 -23.912590 -5.298006 0.320734 17.471503 -0.406094 2.556075 2.900685 0.000000 0.000000 0.000000 1.644250 0.163052 -1.450867 1.153352 1.542621 -7.390771 0.481347 -3.863666 11.265595 -0.106451 0.145756 -0.200559 0.148230 -2.304445 12.785277 -7.144950 3.460643 14.754407 0.000000 0.000000 0.000000 1.897417 -1.597344 9.074638 1.444943 -2.185215 -0.848824 27.999862 -24.460417 -43.798530 -164.452842 -75.508677 167.779936 0.000000 0.000000 0.000000 -2.502007 -0.161892 8.682300 21.863220 9.798842 -0.748554 36.820235 -19.414741 10.593773 -176.799488 69.845917 -178.365773 0.000000 0.000000 0.000000 
16.680712 34.136833 -15.302043 -179.246239 -6.004184 178.867628 -3.145128 -3.382157 7.689936 3.972690 4.330320 -39.425406 10.053822 5.602624 14.708095 -7.922243 5.260788 14.538865 0.000000 0.000000 0.000000 4.996686 -1.033659 8.047680 9.313325 3.377984 -23.272527 -5.529433 0.473005 18.523806 -0.261330 2.629064 1.660745 0.000000 0.000000 0.000000 1.870018 -0.030487 -1.353768 0.981160 1.776001 -6.838503 0.296430 -3.919116 11.278012 -0.152569 0.100938 -0.182524 0.043464 -2.247024 12.899777 -6.473889 3.172071 14.729948 0.000000 0.000000 0.000000 1.775439 -1.620478 9.144110 0.634448 -0.450059 -1.288363 25.680412 -24.304269 -50.226704 -168.212765 -75.124117 171.006108 0.000000 0.000000 0.000000 -2.587340 -0.166753 8.831740 22.537603 10.155013 -0.712784 37.205406 -18.349221 11.179024 -176.606671 69.587115 -177.899831 0.000000 0.000000 0.000000 
16.252897 34.126064 -15.592205 -179.331152 -5.889595 178.911683 -2.784327 -3.388248 7.702509 2.809593 3.852350 -38.897873 10.175588 5.866837 14.934075 -7.631963 5.268280 13.929449 0.000000 0.000000 0.000000 4.771971 -1.020153 8.759879 8.445109 4.356478 -23.849019 -5.668142 0.664402 19.516507 0.072048 2.671931 0.747203 0.000000 0.000000 0.000000 1.947648 -0.130715 -1.525826 0.906393 2.050489 -6.363128 0.210028 -4.009048 11.525562 -0.082719 0.066308 -0.143184 -0.075000 -2.274006 13.002321 -5.685991 2.758536 14.719654 0.000000 0.000000 0.000000 1.609704 -1.702972 9.268842 -0.381626 0.901095 -1.757876 21.463490 -24.133106 -53.669564 -170.235061 -76.100226 172.379085 0.000000 0.000000 0.000000 -2.786528 -0.273660 8.895128 22.988702 10.182859 -0.854758 37.863253 -17.584944 11.879489 -176.303356 69.735344 -177.305673 0.000000 0.000000 0.000000 
15.774285 34.123650 -15.934322 -179.439233 -5.700632 178.952336 -2.476754 -3.224652 7.692724 1.532986 3.356922 -38.286622 10.408956 6.114660 15.171985 -7.373555 5.147006 13.322070 0.000000 0.000000 0.000000 4.356730 -1.165221 9.054854 7.588210 5.244907 -23.741632 -5.780379 0.845548 20.025669 0.606188 2.695674 0.494944 0.000000 0.000000 0.000000 1.957177 -0.125250 -1.717399 0.989017 2.391802 -6.002442 0.139474 -4.089164 11.697530 -0.055630 0.072906 -0.165607 -0.038655 -2.463576 13.274613 -4.935557 2.222368 14.537624 0.000000 0.000000 0.000000 1.636062 -1.951335 9.552504 -1.362969 1.875072 -2.114355 15.979934 -23.012666 -54.201075 -171.502020 -78.561355 172.984964 0.000000 0.000000 0.000000 -2.814166 -0.438100 8.973192 23.007726 10.021584 -1.013649 38.642830 -17.275714 12.440965 -176.212419 69.949306 -177.023900 0.000000 0.000000 0.000000 
15.269301 34.134953 -16.352470 -179.415477 -5.444080 179.047194 -2.176432 -2.973583 7.822287 0.281511 3.007822 -37.731573 10.737295 6.613845 15.348248 -7.277951 4.842827 12.837068 0.000000 0.000000 0.000000 3.993794 -1.173129 9.460018 6.750162 5.897756 -23.643567 -5.878989 1.055441 20.237687 1.300716 2.687115 0.694008 0.000000 0.000000 0.000000 2.048014 -0.018127 -1.906628 1.280539 2.626881 -5.812338 0.083861 -4.167359 11.805590 -0.061612 0.057728 -0.105503 -0.022784 -2.524008 13.407545 -4.193787 1.705507 14.375106 0.000000 0.000000 0.000000 1.572958 -2.011663 9.765688 -2.045268 2.521501 -2.268093 10.173895 -20.646882 -52.106495 -171.827602 -81.821971 172.798909 0.000000 0.000000 0.000000 -2.851251 -0.457523 8.980285 22.786577 9.801350 -1.019595 39.789557 -17.400305 12.767924 -175.133058 70.102118 -175.858656 0.000000 0.000000 0.000000 
14.750680 34.158062 -16.852779 -179.457183 -5.198621 179.220243 -1.992160 -2.741405 8.118124 -0.981394 2.770818 -37.264641 11.181584 7.714371 15.502188 -7.301502 4.452912 12.542509 0.000000 0.000000 0.000000 3.636173 -1.193000 9.996167 6.038146 6.153360 -23.613081 -5.887401 1.732127 20.356559 1.980281 2.539490 1.062377 0.000000 0.000000 0.000000 2.039085 -0.120860 -2.071000 1.645001 3.198172 -5.785968 0.075122 -4.225232 11.731440 -0.083882 0.016408 -0.125976 -0.017003 -2.601222 13.551849 -3.636975 1.158317 14.310057 0.000000 0.000000 0.000000 1.484575 -2.159746 9.990024 -2.472434 2.627637 -2.228071 5.096028 -17.138954 -47.968419 -168.798918 -85.734099 169.534188 0.000000 0.000000 0.000000 -2.802332 -0.562207 9.104788 22.214405 9.310339 -1.164176 40.926043 -17.816120 12.838612 -174.524324 70.419606 -175.306217 0.000000 0.000000 0.000000 
14.235992 34.195320 -17.411396 -179.498136 -4.951339 179.652936 -1.805370 -2.603532 8.445280 -2.231645 2.613382 -36.961302 11.726534 9.393265 15.672422 -7.402893 4.006390 12.196503 0.000000 0.000000 0.000000 3.394133 -1.164798 10.483791 5.361235 6.163265 -23.701590 -5.956615 2.436568 20.575789 2.716634 2.371012 1.253830 0.000000 0.000000 0.000000 2.076772 -0.137966 -2.460712 2.002983 3.574137 -6.025803 0.027224 -4.253808 11.643532 -0.023766 -0.009952 -0.053416 -0.158453 -2.454885 13.671853 -3.242402 0.654192 14.220551 0.000000 0.000000 0.000000 1.256583 -2.207897 10.191330 -2.546663 2.227917 -1.968287 1.730402 -13.520077 -42.074307 -136.875707 -88.897309 137.780488 0.000000 0.000000 0.000000 -2.898811 -0.673831 9.236537 21.562641 9.070967 -1.098403 42.076718 -18.492490 12.706192 -173.028909 70.979333 -174.155153 0.000000 0.000000 0.000000 
13.743954 34.230854 -17.997675 -179.600070 -4.746287 -179.843689 -1.637076 -2.590946 8.776846 -3.465702 2.392985 -36.680213 12.283753 10.905082 16.018566 -7.523766 3.540950 11.604882 0.000000 0.000000 0.000000 3.135866 -1.113053 10.888828 4.748795 6.058364 -23.805064 -6.115697 3.059183 21.020966 3.560729 2.241726 1.229693 0.000000 0.000000 0.000000 2.063095 -0.034049 -2.960093 2.249158 3.782085 -6.386672 -0.047442 -4.290765 11.435606 -0.066443 -0.056366 0.017614 -0.126711 -2.636340 13.724378 -3.000505 0.273509 14.251084 0.000000 0.000000 0.000000 1.234261 -2.212675 10.261293 -2.362172 1.377351 -1.507345 0.454570 -10.758362 -34.658183 -43.862618 -88.655644 45.372199 0.000000 0.000000 0.000000 -2.741797 -0.724314 9.312983 20.639384 8.733361 -1.102812 43.079984 -19.306778 12.612679 -172.246525 71.686838 -173.583507 0.000000 0.000000 0.000000 
13.284790 34.257271 -18.550848 -179.722371 -4.606044 -179.406871 -1.506695 -2.594454 9.033774 -4.613005 2.083207 -36.376788 12.893816 12.400264 16.532169 -7.717999 3.091171 11.032192 0.000000 0.000000 0.000000 2.833643 -1.178837 11.109239 4.196429 5.946073 -23.819327 -6.328063 3.578959 21.600989 4.575447 2.322504 1.351881 0.000000 0.000000 0.000000 2.061415 -0.192610 -3.497777 2.355504 3.864704 -6.762906 -0.082756 -4.236535 11.178365 -0.050416 0.022144 0.043782 -0.192650 -2.618580 13.724716 -2.959188 -0.016993 14.389935 0.000000 0.000000 0.000000 1.166162 -2.186321 10.229154 -1.856283 0.253670 -0.961822 1.085752 -9.875904 -26.600243 -71.367417 -88.550978 73.801123 0.000000 0.000000 0.000000 -2.689908 -0.721229 9.289719 19.886208 8.557080 -0.835094 43.874994 -20.139883 12.637463 -171.702500 72.369146 -173.428858 0.000000 0.000000 0.000000 
12.865922 34.276508 -19.057871 -179.761563 -4.561753 -179.079965 -1.410667 -2.587642 9.141516 -5.715621 1.784346 -36.075078 13.336839 12.456857 17.106704 -7.591772 2.996681 10.370340 0.000000 0.000000 0.000000 2.606809 -1.335286 11.137724 3.729038 5.665725 -23.704691 -6.498263 3.872364 22.363465 5.622228 2.630478 1.529597 0.000000 0.000000 0.000000 2.070831 -0.220801 -4.030508 2.321331 3.746322 -7.082049 -0.118796 -4.200992 10.967241 -0.068899 -0.007037 0.104732 -0.201077 -2.629306 13.645250 -3.045404 -0.144432 14.540412 0.000000 0.000000 0.000000 1.194464 -2.142404 10.124484 -1.112631 -0.929012 -0.351895 3.613800 -11.154553 -19.539570 -135.864211 -87.155311 139.335067 0.000000 0.000000 0.000000 -2.548956 -0.717010 9.183282 19.261256 8.414802 -0.508622 44.390496 -20.858996 12.805983 -170.954007 73.038150 -173.060642 0.000000 0.000000 0.000000 
